<svg width="468" height="468" viewBox="0 0 468 468" fill="none" xmlns="http://www.w3.org/2000/svg">
<path d="M399.3 68.4C355.1 24.3 296.4 0 233.9 0C171.4 0 112.7 24.3 68.5 68.4C24.4 112.5 0 171.2 0 233.6C0 296 24.3 354.7 68.5 398.8C112.7 442.9 171.4 467.2 233.9 467.2C296.4 467.2 355.1 442.9 399.3 398.8C443.5 354.7 467.8 296 467.8 233.6C467.8 171.2 443.5 112.5 399.3 68.4ZM233.9 459.3C109.3 459.3 8 358.1 8 233.6C8 109.2 109.3 7.9 233.9 7.9C358.5 7.9 459.8 109.1 459.8 233.6C459.8 358 358.5 459.3 233.9 459.3Z" fill="white"/>
<path d="M350.9 184.8C350 184.1 349.1 183.4 348.1 182.6C343.6 179 338.4 174.8 332.8 170.2C306.5 148.9 270.5 119.8 250.6 104.4C236.1 93.2 230.1 94.6 217 105.2L113.7 188.5C107.5 193.5 106.7 196.3 106.7 204.1V356.4C106.7 364.3 113.1 370.7 121 370.7H185C192.9 370.7 199.3 364.3 199.3 356.4V260.8H268.3V356.4C268.3 364.3 274.7 370.7 282.6 370.7H347.1C355 370.7 361.4 364.3 361.4 356.4V203.9C361.2 192.9 356.9 189.5 350.9 184.8ZM353.2 356.4C353.2 359.9 350.4 362.7 346.9 362.7H282.4C278.9 362.7 276.1 359.9 276.1 356.4V256.8C276.1 254.6 274.3 252.8 272.1 252.8H195.1C192.9 252.8 191.1 254.6 191.1 256.8V356.4C191.1 359.8 188.2 362.7 184.8 362.7H120.8C117.3 362.7 114.5 359.9 114.5 356.4V204.1C114.5 198.1 114.6 197.9 118.6 194.7L221.9 111.4C232.6 102.8 234.6 102.2 245.6 110.7C265.5 126.1 301.4 155.2 327.7 176.4C333.3 181 338.5 185.2 343 188.8C344 189.6 345 190.4 345.9 191.1C351.5 195.4 353.1 196.7 353.1 203.8V356.4H353.2Z" fill="white"/>
</svg>
